{"title":"Game Time With Urban Meyer.9-6-2014.480p.HDTV.x264_TTL","uid":10993429,"size":357421684,"categoryP":"video","categoryS":"tv_shows","magnet":"?xt=urn:btih:e25c490a9474a14ac6daa0f3f71953ef76f3f655&amp;dn=Game+Time+With+Urban+Meyer.9-6-2014.480p.HDTV.x264_TTL&amp;tr=udp%3A%2F%2Ftracker.openbittorrent.com%3A80&amp;tr=udp%3A%2F%2Fopen.demonii.com%3A1337&amp;tr=udp%3A%2F%2Ftracker.coppersurfer.tk%3A6969&amp;tr=udp%3A%2F%2Fexodus.desync.com%3A6969","seeders":1,"leechers":0,"uploader":"thetorrentlord","files":-1,"time":1410033417,"description":"Go BUCKS!!!!!!!!!!!!!!!!!!!!!\t\t\t\t\t\t\t\t\t\t\t\t\t\t\t\t\t\t\t\t\t\t\t\t\t\t\t\t\t\t\t\tBeat the Hokies.\t\t\t\t\t\t\t\t\t\t\t\t\t\t\t\t\t\t\t\t\t\tBe sure to get all 3 shows today(Buckeye Blitz and Football Fever pregame). All are pregame shows.\t\t\t\t\t\t\t\t\t\t\t\t\t\t\t\t\t\t\t\t\t\t\t\t\t\t\t\t\t\t\t\t\t\tEnjoy and please share.\t\t\t\t\t\t\t\t\t\t\t\t\t\t\t\t\t\t\t\t\t\t\t\t\t\t\t\t\t\t\t\t\t\tTTLTTLTTLTTLTTLTTLTTLTTLTTLTTLTTLTTLTTLTTLTTLTTLTTLTTLTTLTTLTTLTTL\t\t\t\t\t\t\t\t\t\t\t\t\t\t\t\t\t\t\t\t\t\t\t\t\t\t\t\t\t\t\t\t\t\t\t\t\t\t\tGame Time With Urban Meyer.9-6-2014.480p.HDTV.x264_TTL.mp4\nFormat                           : MPEG-4\nFormat profile                   : Base Media / Version 2\nCodec ID                         : mp42\nFile size                        : 333 MiB\nDuration                         : 39mn 56s\nOverall bit rate                 : 1 165 Kbps\nEncoded date                     : UTC 2014-09-06 15:06:19\nTagged date                      : UTC 2014-09-06 15:10:41\nWriting application              : HandBrake 0.9.5 2011010300\n\nVideo\nID                               : 1\nFormat                           : AVC\nFormat/Info                      : Advanced Video Codec\nFormat profile                   : &lt;a class=&quot;__cf_email__&quot; href=&quot;/cdn-cgi/l/email-protection&quot; data-cfemail=&quot;e5a8848c8ba5a9d6cbd5&quot;&gt;[email&amp;#160;protected]&lt;/a&gt;&lt;script cf-hash='f9e31' type=&quot;text/javascript&quot;&gt;\n/* &lt;![CDATA[ */!function(){try{var t=&quot;currentScript&quot;in document?document.currentScript:function(){for(var t=document.getElementsByTagName(&quot;script&quot;),e=t.length;e--;)if(t[e].getAttribute(&quot;cf-hash&quot;))return t[e]}();if(t&amp;&amp;t.previousSibling){var e,r,n,i,c=t.previousSibling,a=c.getAttribute(&quot;data-cfemail&quot;);if(a){for(e=&quot;&quot;,r=parseInt(a.substr(0,2),16),n=2;a.length-n;n+=2)i=parseInt(a.substr(n,2),16)^r,e+=String.fromCharCode(i);e=document.createTextNode(e),c.parentNode.replaceChild(e,c)}}}catch(u){}}();/* ]]&gt; */&lt;/script&gt;\nFormat settings, CABAC           : Yes\nFormat settings, ReFrames        : 4 frames\nCodec ID                         : avc1\nCodec ID/Info                    : Advanced Video Coding\nDuration                         : 39mn 56s\nBit rate mode                    : Variable\nBit rate                         : 1 002 Kbps\nWidth                            : 624 pixels\nHeight                           : 352 pixels\nDisplay aspect ratio             : 16:9\nFrame rate mode                  : Variable\nFrame rate                       : 29.970 fps\nMinimum frame rate               : 29.970 fps\nMaximum frame rate               : 29.980 fps\nResolution                       : 8 bits\nColorimetry                      : 4:2:0\nScan type                        : Progressive\nBits/(Pixel*Frame)               : 0.152\nStream size                      : 286 MiB (86%)\nWriting library                  : x264 core 112\n\nAudio\nID                               : 2\nFormat                           : AAC\nFormat/Info                      : Advanced Audio Codec\nFormat version                   : Version 4\nFormat profile                   : LC\nFormat settings, SBR             : No\nCodec ID                         : 40\nDuration                         : 39mn 56s\nBit rate mode                    : Variable\nBit rate                         : 160 Kbps\nMaximum bit rate                 : 190 Kbps\nChannel(s)                       : 2 channels\nChannel positions                : L R\nSampling rate                    : 48.0 KHz\nStream size                      : 45.7 MiB (14%)\nEncoded date                     : UTC 2014-09-06 15:06:19\nTagged date                      : UTC 2014-09-06 15:10:41\n\n","torrent":{"xt":"urn:btih:e25c490a9474a14ac6daa0f3f71953ef76f3f655","amp;dn":"Game+Time+With+Urban+Meyer.9-6-2014.480p.HDTV.x264_TTL","amp;tr":["udp%3A%2F%2Ftracker.openbittorrent.com%3A80","udp%3A%2F%2Fopen.demonii.com%3A1337","udp%3A%2F%2Ftracker.coppersurfer.tk%3A6969","udp%3A%2F%2Fexodus.desync.com%3A6969"],"infoHash":"e25c490a9474a14ac6daa0f3f71953ef76f3f655","infoHashBuffer":{"type":"Buffer","data":[226,92,73,10,148,116,161,74,198,218,160,243,247,25,83,239,118,243,246,85]},"announce":[],"urlList":[]}}